<svg xmlns="http://www.w3.org/2000/svg" viewBox="0 0 205.21 170"><defs><style>.cls-1{fill:#d7e0e5;}.cls-2{font-size:22px;font-family:Roboto-Regular, Roboto;}.cls-3{letter-spacing:0.01em;}</style></defs><title>Asset 2</title><g id="Layer_2" data-name="Layer 2"><g id="pages"><path class="cls-1" d="M73.36,127.44a9.63,9.63,0,0,0,9.23,6.92A9.76,9.76,0,0,0,85.3,134,9.62,9.62,0,0,0,91.83,122L80,81.76a9.57,9.57,0,0,0-4.53-5.67c-.59.39-1.2.76-1.85,1.12-6.3,3.46-14.72,5.59-26.51,6.71q-.36,0-.72,0a7.69,7.69,0,0,1-.71-15.35c7.17-.66,13.18-1.85,17.37-3.44.34-.12.65-.25,1-.37L67,50.44a28.26,28.26,0,0,1,3,4.62,15.11,15.11,0,0,1,.85,2,8.24,8.24,0,0,1,.48,2.59,4.4,4.4,0,0,1,0,.64h0a4,4,0,0,1-.87,2.05c-.83,1.12-2.76,2.74-6.71,4.22s-9.75,2.79-17.77,3.53a6.16,6.16,0,0,0,.56,12.29l.58,0c11.68-1.11,19.9-3.22,25.91-6.52a22.76,22.76,0,0,0,7.26-6.07A16.62,16.62,0,0,0,83.42,62h0a17.2,17.2,0,0,0,.14-2.25,19.63,19.63,0,0,0-.33-3.47A26.12,26.12,0,0,0,80.65,49a50.16,50.16,0,0,0-8.52-11.33c-1.67-1.71-3.12-3-4-3.81a5.93,5.93,0,0,0-3.42-2.06l-1.45-.29a18.83,18.83,0,0,1-12.36,4.67,19.32,19.32,0,0,1-3.78-.39,18.72,18.72,0,0,1-12-8.07,19.13,19.13,0,0,1-1.13-2l-.26,0a29.55,29.55,0,0,0-18.41,8A41.74,41.74,0,0,0,4.49,50.65C1.7,58.26,0,68,0,80.41c0,2,0,4,.13,6.11a6.16,6.16,0,0,0,6.15,5.9h.26A6.14,6.14,0,0,0,12.43,86c-.08-1.94-.12-3.8-.12-5.59,0-11.33,1.56-19.59,3.74-25.53,2.83-7.61,6.49-11.5,9.78-13.74C22.72,53.76,18,74.08,18,82.08a6.15,6.15,0,0,0,.09,1.06v77.35a9.52,9.52,0,0,0,19,0v-61A9.61,9.61,0,0,0,48.34,103l16.12-5.93Z"/><rect class="cls-1" x="54.06" y="138.46" width="56.43" height="31.42"/><circle class="cls-1" cx="50.86" cy="17.32" r="17.32" transform="translate(23.73 63.69) rotate(-78.49)"/><text class="cls-2" transform="translate(31.93 85.98)"><tspan class="cls-3">N</tspan><tspan x="15.89" y="0">AME SUR</tspan><tspan class="cls-3" x="110.97" y="0">N</tspan><tspan x="126.85" y="0">AME</tspan></text></g></g></svg>