<svg xmlns="http://www.w3.org/2000/svg" viewBox="0 0 204.39 170"><defs><style>.cls-1{fill:#d7e0e5;}.cls-2{font-size:22px;font-family:Roboto-Regular, Roboto;}.cls-3{letter-spacing:0.01em;}</style></defs><title>Asset 5</title><g id="Layer_2" data-name="Layer 2"><g id="pages"><path class="cls-1" d="M59.09,27.86c0-.38,0-.78,0-1.17A15.22,15.22,0,1,0,52.91,39a91.42,91.42,0,0,0,4.55-8.87A6.84,6.84,0,0,1,59.09,27.86Z"/><path class="cls-1" d="M68.92,28.69a6.77,6.77,0,0,1,.86,7c-4.53,10-9.21,17.21-14.32,22.06-4.74,4.55-10.3,7-15.65,7h-.1a19.53,19.53,0,0,1-8.59-2,25,25,0,0,1-5.93-4A35,35,0,0,1,21,54.14v107.5a8.36,8.36,0,1,0,16.71,0v-61h3.14v61a8.36,8.36,0,1,0,16.71,0V69.94A8.13,8.13,0,0,0,59,70.1h.06a7.14,7.14,0,0,0,4.06-1.34,11.49,11.49,0,0,0,3.6-4.66,50.42,50.42,0,0,0,3.21-10.8c1-4.77,1.93-10.9,2.84-18.81A5.4,5.4,0,0,0,68.92,28.69Z"/><path class="cls-1" d="M81.12,7a5.81,5.81,0,0,0-6.25-.42A5.81,5.81,0,0,0,72,1c-3.41-2.23-16.1-2.29-6.52,19.7C89.52,20.89,84.5,9.23,81.12,7Z"/><path class="cls-1" d="M11.24,11.4a5.81,5.81,0,0,0-2.48,5.76,5.79,5.79,0,0,0-6.21.8C-.7,20.43-5,32.37,19,30.67,27.17,8.13,14.51,9,11.24,11.4Z"/><path class="cls-1" d="M21.36,52.25h0a28.53,28.53,0,0,0,4.73,5.46,24,24,0,0,0,5.62,3.82,18.15,18.15,0,0,0,8,1.89h.1c4.82,0,10-2.17,14.72-6.68s9.38-11.4,14-21.64a5.41,5.41,0,1,0-9.86-4.45c-4.25,9.42-8.3,15.14-11.6,18.24s-5.62,3.69-7.38,3.72a7.52,7.52,0,0,1-3.31-.82,13.58,13.58,0,0,1-3.18-2.22h2.12a10.24,10.24,0,0,0,1.65,1,6.36,6.36,0,0,0,2.72.69c1.35,0,3.32-.43,6.46-3.36A30.71,30.71,0,0,0,49.63,44H26a5.42,5.42,0,0,0-4.66,8.29Z"/><text class="cls-2" transform="translate(31.11 85)"><tspan class="cls-3">N</tspan><tspan x="15.89" y="0">AME SUR</tspan><tspan class="cls-3" x="110.97" y="0">N</tspan><tspan x="126.85" y="0">AME</tspan></text></g></g></svg>