<svg xmlns="http://www.w3.org/2000/svg" viewBox="0 0 302 366.63"><defs><style>.cls-1{font-size:22px;}.cls-1,.cls-2{fill:#ee4036;}.cls-1,.cls-4{font-family:Roboto-Regular, Roboto;}.cls-3{fill:none;stroke:#ee4036;stroke-miterlimit:10;stroke-width:2px;}.cls-4{font-size:20px;fill:#58595b;letter-spacing:0.02em;}</style></defs><title>Asset 6</title><g id="Layer_2" data-name="Layer 2"><g id="pages"><text class="cls-1" transform="translate(0.05 331.11)">MISSION</text><path class="cls-2" d="M225.12,39.49a2.23,2.23,0,0,0-1,.58L203.18,58.68a2.27,2.27,0,0,0-.8,1.74V82.66L198,87a90.95,90.95,0,1,0,3.27,3.34L205.65,86H228a2.29,2.29,0,0,0,1.74-.8l18.61-20.93a2.33,2.33,0,0,0-.23-3.28,2.29,2.29,0,0,0-1.51-.57H228V41.81a2.33,2.33,0,0,0-2.27-2.38A2.76,2.76,0,0,0,225.12,39.49ZM223.31,47V62.75a2.32,2.32,0,0,0,2.32,2.32h15.7L226.87,81.35H207V61.44ZM137.26,67.4a83.56,83.56,0,0,1,57.49,22.89L175,110.06a54.55,54.55,0,1,0,3.34,3.27L198,93.63A83.66,83.66,0,1,1,137.26,67.4Zm0,32.56a51.08,51.08,0,0,1,34.45,13.3l-18.17,18.17a25.79,25.79,0,1,0,3.34,3.34l18.17-18.17A51.19,51.19,0,1,1,137.26,100Zm0,30.23a20.78,20.78,0,0,1,13,4.58l-14.68,14.68a2.34,2.34,0,0,0,3.34,3.27L153.61,138a20.94,20.94,0,1,1-16.35-7.85Z"/><rect class="cls-3" x="1" y="1" width="300" height="300"/><text class="cls-4" transform="translate(0.05 361.21)">ditribute html experiance.</text></g></g></svg>