<svg xmlns="http://www.w3.org/2000/svg" viewBox="0 0 302 367.75"><defs><style>.cls-1{font-size:22px;}.cls-1,.cls-4{fill:#ee4036;}.cls-1,.cls-6{font-family:Roboto-Regular, Roboto;}.cls-2{letter-spacing:-0.01em;}.cls-3{letter-spacing:-0.01em;}.cls-5{fill:none;stroke:#ee4036;stroke-miterlimit:10;stroke-width:2px;}.cls-6{font-size:20px;fill:#58595b;letter-spacing:0.02em;}</style></defs><title>Asset 8</title><g id="Layer_2" data-name="Layer 2"><g id="pages"><text class="cls-1" transform="translate(3.05 331.5)">P<tspan class="cls-2" x="14.09" y="0">H</tspan><tspan x="29.49" y="0">Y</tspan><tspan class="cls-3" x="42.92" y="0">L</tspan><tspan x="54.53" y="0">OSOP</tspan><tspan class="cls-2" x="112.33" y="0">H</tspan><tspan x="127.72" y="0">Y</tspan></text><path class="cls-4" d="M99.74,149.93a160.31,160.31,0,0,0-10.07,18.46,2.4,2.4,0,0,0,.51,2.68l44.47,44.47a2.46,2.46,0,0,0,1.72.71,2.34,2.34,0,0,0,1-.2A161.3,161.3,0,0,0,155.8,206a2.43,2.43,0,1,0-2.55-4.13,177.9,177.9,0,0,1-16.36,9.06L94.81,168.84a177.9,177.9,0,0,1,9.06-16.36,2.43,2.43,0,0,0-4.13-2.55Z"/><path class="cls-4" d="M121.12,209.74a2.41,2.41,0,0,0-2.77-.49,15.55,15.55,0,0,1-14-.62,2.42,2.42,0,1,0-2.31,4.26,20.55,20.55,0,0,0,16.75,1.42l3.07,3.13c-13.3,14.8-35.83,13.34-44.31,12.15,2-4.57,1.56-9.92,1.11-15.52-.81-10-1.64-20.35,9.62-30.18l3.4,3.4a24.34,24.34,0,0,0,1,15.28c0,.05,1.72,4.75-.29,8.15-1.16,2-3.46,3.23-6.84,3.74a2.43,2.43,0,0,0,.73,4.8c4.91-.75,8.38-2.8,10.31-6.11,3.17-5.41.74-12,.59-12.39a20.14,20.14,0,0,1-.44-13.54,2.4,2.4,0,0,0-.61-2.38l-6-5.94a2.42,2.42,0,0,0-3.22-.19c-15,11.84-14,25.1-13.11,35.75.51,6.28.94,11.71-2.06,15.4a2.42,2.42,0,0,0,1.35,3.89,71.25,71.25,0,0,0,14.8,1.47c11.93,0,28.41-2.84,39.13-16.4a2.41,2.41,0,0,0-.17-3.2Z"/><path class="cls-4" d="M212.32,126.45A23.36,23.36,0,0,0,195.8,86.57h0a23.36,23.36,0,1,0,16.53,39.88Zm-35-16.52a18.52,18.52,0,0,1,18.51-18.51h0a18.51,18.51,0,1,1-18.52,18.51Z"/><path class="cls-4" d="M248.16,60.25a2.41,2.41,0,0,0-.7-2,2.44,2.44,0,0,0-2-.7l-7.86.89c-4.83-.72-50.36-6-98.88,42.48q-2.59,2.61-5,5.19H104.15a2.41,2.41,0,0,0-1.86.86L54.74,163.36a2.43,2.43,0,0,0,.14,3.28l6.72,6.72a2.44,2.44,0,0,0,2.92.4l27.35-15.59a2.43,2.43,0,1,0-2.4-4.22L63.73,168.62l-3.84-3.84L105.27,111h29.46a2.41,2.41,0,0,0,1.76-.76c1.83-1.93,3.71-3.88,5.67-5.85C167.44,79.09,191.92,69.27,208,65.48c17.42-4.09,29-2.21,29.15-2.19a2.21,2.21,0,0,0,.68,0l5.16-.58-.58,5.16a2.21,2.21,0,0,0,0,.68c0,.12,1.91,11.73-2.19,29.15-3.79,16.09-13.61,40.56-38.88,65.84q-3,2.94-5.86,5.68a2.44,2.44,0,0,0-.76,1.76v29.46l-53.8,45.38-3.77-3.78,16.05-25.28a2.43,2.43,0,1,0-4.1-2.61L132,241.1a2.43,2.43,0,0,0,.33,3l6.73,6.73a2.42,2.42,0,0,0,1.71.71,2.45,2.45,0,0,0,1.57-.57l56.37-47.55a2.45,2.45,0,0,0,.86-1.86V172.05c1.72-1.64,3.45-3.32,5.19-5.06,48.52-48.52,43.21-94.05,42.48-98.88Z"/><path class="cls-4" d="M138.58,162.77l-20,20a2.43,2.43,0,1,0,3.43,3.44l20-20a2.43,2.43,0,0,0-3.43-3.43Z"/><path class="cls-4" d="M128.57,152.76l-20,20a2.42,2.42,0,0,0,0,3.43,2.4,2.4,0,0,0,3.43,0l20-20a2.43,2.43,0,0,0-3.43-3.43Z"/><path class="cls-4" d="M128.39,196.05a2.43,2.43,0,0,0,3.43,0l20-20a2.43,2.43,0,0,0-3.43-3.43l-20,20A2.42,2.42,0,0,0,128.39,196.05Z"/><path class="cls-4" d="M128,119H105.71a2.43,2.43,0,0,0,0,4.85H128a2.43,2.43,0,1,0,0-4.85Z"/><path class="cls-4" d="M181.88,177.77V200a2.43,2.43,0,0,0,4.86,0V177.77a2.43,2.43,0,0,0-4.86,0Z"/><rect class="cls-5" x="1" y="1" width="300" height="300"/><text class="cls-6" transform="translate(3.05 362.33)">ditribute html experiance.</text></g></g></svg>