<svg xmlns="http://www.w3.org/2000/svg" viewBox="0 0 205.25 170"><defs><style>.cls-1{fill:#d7e0e5;}.cls-2{font-size:22px;font-family:Roboto-Regular, Roboto;}.cls-3{letter-spacing:0.01em;}</style></defs><title>Asset 3</title><g id="Layer_2" data-name="Layer 2"><g id="pages"><path class="cls-1" d="M81,22.52A5.72,5.72,0,0,0,76.08,29a83.65,83.65,0,0,1,.82,10.68,21.71,21.71,0,0,1-.67,6.23,9,9,0,0,1-1.18-.64A30.92,30.92,0,0,1,70,41c-.73-.74-1.33-1.39-1.74-1.86-.21-.23-.37-.42-.47-.54l-.11-.12,0,0a5.75,5.75,0,0,0-5-2.06,5.84,5.84,0,0,0-.73,0H34.25a5.84,5.84,0,0,0-.73,0,5.75,5.75,0,0,0-5,2.06l-.05.06a45,45,0,0,1-4.54,4.6,21.41,21.41,0,0,1-3.29,2.41c-.24.13-.47.25-.67.34a21.38,21.38,0,0,1-.69-6.23A84,84,0,0,1,20.11,29a5.73,5.73,0,0,0-11.37-1.5,94,94,0,0,0-.92,12.18c0,5.14.58,9,2.29,12.28a10.85,10.85,0,0,0,3.79,4.21,9.85,9.85,0,0,0,5.2,1.49h.07a14.87,14.87,0,0,0,7.47-2.32q1.08-.65,2.07-1.35v107.2a8.86,8.86,0,0,0,17.72,0V96.44h3.33v64.7a8.86,8.86,0,0,0,17.72,0V53.93c.66.47,1.34.93,2.07,1.36A14.87,14.87,0,0,0,77,57.61h.07a9.88,9.88,0,0,0,5.2-1.49,12.09,12.09,0,0,0,4.87-6.81,32.52,32.52,0,0,0,1.21-9.68,94,94,0,0,0-.92-12.18A5.73,5.73,0,0,0,81,22.52Z"/><circle class="cls-1" cx="48.1" cy="16.13" r="16.13"/><path class="cls-1" d="M6.72,20.66a2,2,0,0,1,.3-.17.72.72,0,0,0,.34-1,.71.71,0,0,0-1-.34h0a5.15,5.15,0,0,0-2.89,4.38,6.09,6.09,0,0,0,.76,2.8.71.71,0,0,0,.64.38.67.67,0,0,0,.33-.08.7.7,0,0,0,.3-1A4.72,4.72,0,0,1,5,23.57a3.18,3.18,0,0,1,1-2.32A4.61,4.61,0,0,1,6.72,20.66Z"/><path class="cls-1" d="M2.3,27.83a.73.73,0,0,0,.27-1,7.44,7.44,0,0,1-1.14-3.72A5.42,5.42,0,0,1,3,19.39a7.25,7.25,0,0,1,1.09-1c.29-.21.46-.29.46-.3a.72.72,0,1,0-.68-1.26h0A7.59,7.59,0,0,0,0,23.13a8.88,8.88,0,0,0,1.32,4.43.72.72,0,0,0,.62.36A.77.77,0,0,0,2.3,27.83Z"/><path class="cls-1" d="M18.14,20.42a.73.73,0,0,0,.65.78,3.67,3.67,0,0,1,3,1.58,4,4,0,0,1,.57,2.12,2.79,2.79,0,0,1,0,.38.72.72,0,0,0,.61.81h.1a.71.71,0,0,0,.71-.62s0-.25,0-.58A5.47,5.47,0,0,0,23,22a5.15,5.15,0,0,0-4.1-2.24A.73.73,0,0,0,18.14,20.42Z"/><path class="cls-1" d="M19.47,18.07c3.05.19,4.49,1.4,5.31,2.72a6.71,6.71,0,0,1,.92,3.44c0,.18,0,.27,0,.27a.72.72,0,0,0,.66.77h.06a.71.71,0,0,0,.71-.66h0a1.83,1.83,0,0,0,0-.38A8.28,8.28,0,0,0,26,20c-1-1.69-3-3.23-6.45-3.4a.72.72,0,1,0-.08,1.43Z"/><path class="cls-1" d="M87.85,20.49a2,2,0,0,1,.3.17,3.57,3.57,0,0,1,1.77,2.91,4.72,4.72,0,0,1-.6,2.14.7.7,0,0,0,.3,1,.66.66,0,0,0,.33.09.72.72,0,0,0,.64-.39,6.09,6.09,0,0,0,.76-2.8,5.15,5.15,0,0,0-2.89-4.38.72.72,0,1,0-.61,1.3Z"/><path class="cls-1" d="M90.33,18.12h0a4.38,4.38,0,0,1,.46.3,6,6,0,0,1,2.65,4.71,7.57,7.57,0,0,1-1.14,3.72.73.73,0,0,0,.27,1,.77.77,0,0,0,.36.09.72.72,0,0,0,.62-.36,8.88,8.88,0,0,0,1.32-4.43A7.61,7.61,0,0,0,91,16.86a.72.72,0,1,0-.68,1.26Z"/><path class="cls-1" d="M76.08,21.2a.72.72,0,1,0-.14-1.43A5.18,5.18,0,0,0,71.84,22a5.47,5.47,0,0,0-.78,2.89,3.64,3.64,0,0,0,0,.58.72.72,0,0,0,.71.62h.1a.72.72,0,0,0,.61-.81h0a2.79,2.79,0,0,1,0-.38,4.07,4.07,0,0,1,.56-2.12A3.7,3.7,0,0,1,76.08,21.2Z"/><path class="cls-1" d="M67.73,24.22a2.13,2.13,0,0,0,0,.4.71.71,0,0,0,.71.65h.06a.71.71,0,0,0,.65-.78v-.27a6.71,6.71,0,0,1,.92-3.43c.82-1.32,2.26-2.53,5.31-2.72a.72.72,0,1,0-.08-1.43c-3.43.18-5.44,1.71-6.46,3.4A8.34,8.34,0,0,0,67.73,24.22Z"/><text class="cls-2" transform="translate(31.97 83.82)"><tspan class="cls-3">N</tspan><tspan x="15.89" y="0">AME SUR</tspan><tspan class="cls-3" x="110.97" y="0">N</tspan><tspan x="126.85" y="0">AME</tspan></text></g></g></svg>