<svg xmlns="http://www.w3.org/2000/svg" viewBox="0 0 194.71 170"><defs><style>.cls-1{fill:#d7e0e5;}.cls-2{font-size:22px;font-family:Roboto-Regular, Roboto;}.cls-3{letter-spacing:0.01em;}</style></defs><title>Asset 4</title><g id="Layer_2" data-name="Layer 2"><g id="pages"><path class="cls-1" d="M6.52,52.35A39.43,39.43,0,0,0,15.89,57c.9.31,1.75.58,2.57.81V161.93a8.07,8.07,0,0,0,16.14,0V103h3v58.93a8.07,8.07,0,0,0,16.14,0V64a27.34,27.34,0,0,1,1.16,2.77c1.84,5.1,3.39,13.46,3.38,26.53,0,3.6-.11,7.55-.36,11.89a5.22,5.22,0,0,0,4.9,5.52h.31a5.22,5.22,0,0,0,5.21-4.92c.27-4.53.39-8.68.39-12.5,0-19.71-3.17-30.61-7.47-37.17a18.46,18.46,0,0,0-7-6.5A12.6,12.6,0,0,0,49,48.28H23.55a21.92,21.92,0,0,1-3.07-.76A31.9,31.9,0,0,1,12.86,44a8.89,8.89,0,0,1-2.16-1.87,2.13,2.13,0,0,1-.21-.3,4.2,4.2,0,0,1,.73-.89c1.26-1.3,4.46-3.24,10-5.35a15.94,15.94,0,0,1-.19-11,61.45,61.45,0,0,0-13.36,6,20.15,20.15,0,0,0-5.43,4.86A10.86,10.86,0,0,0,0,41.87a10.44,10.44,0,0,0,1.29,4.94A16.71,16.71,0,0,0,6.52,52.35Z"/><circle class="cls-1" cx="36.11" cy="29.86" r="14.69"/><path class="cls-1" d="M58,20.91a3.5,3.5,0,0,0,1.93-.25,1.82,1.82,0,0,0,1.27-1.29c.15-.73-.19-1.21-1-1.44a2.15,2.15,0,0,0-1-.7,1.6,1.6,0,0,0-1.06.08c-.1.06-.23.12-.38.19-.85.36-1.32.75-1.41,1.18a1.67,1.67,0,0,0,.34,1.41A2.23,2.23,0,0,0,58,20.91Z"/><path class="cls-1" d="M59.7,15.19a3.22,3.22,0,0,0,1.77,0,1.64,1.64,0,0,0,.86-.94A15,15,0,0,1,63.46,12c2.49-.33,4.15-.6,5-.8A4.75,4.75,0,0,0,70.75,9.8a6.38,6.38,0,0,0,1.52-3.22h0a7.13,7.13,0,0,0,.12-2.85,5.56,5.56,0,0,0-1.55-2.29A4.07,4.07,0,0,0,68.48.35L66.85.07a4.4,4.4,0,0,0-2.34.22h0A7.27,7.27,0,0,0,62.14,1.5,2.83,2.83,0,0,0,61,3a1.14,1.14,0,0,0,1,1.49c1.31.27,2.11,0,2.39-.8a1.34,1.34,0,0,1,.76-.62,4,4,0,0,1,2.12,0,3.43,3.43,0,0,1,1,.38,1.76,1.76,0,0,1,.63.51,3.19,3.19,0,0,1,.19,1.09,5.21,5.21,0,0,1,0,1.32,3.06,3.06,0,0,1-.61,1.29,1.73,1.73,0,0,1-1,.72l-2,.36c-1.28.22-2.16.4-2.63.53a8.24,8.24,0,0,0-1.59.7,25.22,25.22,0,0,0-1.52,2.07,3.81,3.81,0,0,0-.45,1.18,3.34,3.34,0,0,0,0,1.22C59.27,14.91,59.44,15.14,59.7,15.19Z"/><text class="cls-2" transform="translate(21.43 83.82)"><tspan class="cls-3">N</tspan><tspan x="15.89" y="0">AME SUR</tspan><tspan class="cls-3" x="110.97" y="0">N</tspan><tspan x="126.85" y="0">AME</tspan></text></g></g></svg>