<svg xmlns="http://www.w3.org/2000/svg" viewBox="0 0 402 473.63"><defs><style>.cls-1{font-size:22px;fill:#ee4036;}.cls-1,.cls-3{font-family:Roboto-Regular, Roboto;}.cls-2{fill:none;stroke:#ee4036;stroke-miterlimit:10;stroke-width:2px;}.cls-3{font-size:20px;fill:#58595b;letter-spacing:0.02em;}</style></defs><title>Asset 7</title><g id="Layer_2" data-name="Layer 2"><g id="pages"><text class="cls-1" transform="translate(2.49 433.11)">VISION</text><path d="M287.13,228.48H117.22a11.94,11.94,0,0,1-11.92-11.92V117.77a11.93,11.93,0,0,1,11.92-11.91H287.13a11.93,11.93,0,0,1,11.92,11.91v98.79A11.94,11.94,0,0,1,287.13,228.48ZM117.22,109.77a8,8,0,0,0-8,8v98.79a8,8,0,0,0,8,8H287.13a8,8,0,0,0,8-8V117.77a8,8,0,0,0-8-8Z"/><path d="M288.19,218.11h-172a1,1,0,0,1-1-1V117.2a1,1,0,0,1,1-1h172a1,1,0,0,1,1,1v99.94A1,1,0,0,1,288.19,218.11Zm-171-2H287.22v-98H117.14v98Z"/><path d="M320.61,286.18H83.4c-6.3,0-10.66-1.5-12-4.13a4,4,0,0,1,.55-4.42l34.62-46.2c2.61-3.48,9.22-6.21,15.06-6.21H282.33c5.84,0,12.46,2.73,15.07,6.21L332,277.62a4.06,4.06,0,0,1,.57,4.42C330.71,285.77,323.58,286.18,320.61,286.18Zm-199-57.05c-4.58,0-10.05,2.13-11.93,4.64L75.11,280a1.21,1.21,0,0,0-.2.36c.18.47,2.62,1.95,8.49,1.95H320.61c5.85,0,8.29-1.48,8.48-2h0s-.06-.12-.21-.32l-34.61-46.19c-1.88-2.52-7.35-4.64-11.93-4.64Z"/><path d="M224.78,205H179.56a1,1,0,0,1,0-2h45.22a1,1,0,0,1,0,2Z"/><path d="M201.8,179.24a1,1,0,0,1,1,1v16.92a1,1,0,1,1-1.95,0V180.22A1,1,0,0,1,201.8,179.24Z"/><path d="M201.8,179.24a1,1,0,0,1,.69.28l5.63,5.64a1,1,0,0,1-1.38,1.38l-4.94-4.94-5,4.94a1,1,0,0,1-1.39,0,1,1,0,0,1,0-1.38l5.65-5.64A1,1,0,0,1,201.8,179.24Z"/><path d="M309.18,265.48H96a1,1,0,0,1-.87-.52,1,1,0,0,1,.06-1l19.44-28.53a1,1,0,0,1,.81-.43H289.82a1,1,0,0,1,.81.43L310,264a1,1,0,0,1,.06,1A1,1,0,0,1,309.18,265.48Zm-211.3-2H307.33l-18-26.58H116Z"/><path d="M216.32,176.87a2,2,0,0,1-1.48-.67c-.17-.19-4.45-4.92-13-4.92s-12.87,4.73-13.05,4.93a2,2,0,0,1-2.94-2.57c.22-.25,5.54-6.26,16-6.26s15.77,6,16,6.26a1.95,1.95,0,0,1-1.48,3.23Z"/><path d="M222.37,169.61a1.94,1.94,0,0,1-1.46-.66c-.16-.17-6.52-6.94-19.11-6.94s-19,6.77-19.11,7a2,2,0,1,1-2.92-2.6c.3-.33,7.6-8.26,22-8.26s21.74,7.92,22,8.26a1.95,1.95,0,0,1-1.46,3.25Z"/><path d="M228.42,162.35a1.94,1.94,0,0,1-1.44-.64c-.15-.16-8.59-9-25.17-9s-25,8.82-25.18,9a2,2,0,0,1-2.89-2.63c.38-.42,9.67-10.26,28.07-10.26s27.68,9.85,28.07,10.26a2,2,0,0,1-.14,2.76A2,2,0,0,1,228.42,162.35Z"/><path d="M234.47,155.09a1.94,1.94,0,0,1-1.43-.63c-.13-.14-10.65-11-31.23-11s-31.11,10.86-31.25,11a2,2,0,1,1-2.86-2.66c.47-.5,11.73-12.26,34.11-12.26s33.63,11.76,34.1,12.26a2,2,0,0,1-.1,2.76A2,2,0,0,1,234.47,155.09Z"/><path d="M240.52,147.83a2,2,0,0,1-1.42-.6c-.12-.13-12.72-13-37.3-13s-37.18,12.92-37.31,13a2,2,0,0,1-2.84-2.69c.55-.59,13.8-14.26,40.15-14.26s39.59,13.68,40.14,14.26a2,2,0,0,1-.07,2.76A2,2,0,0,1,240.52,147.83Z"/><path d="M320.61,294.72H83.4c-3.17,0-8.84-.41-11.29-3.14A4,4,0,0,1,71,288.43v-7.84a5.42,5.42,0,0,1,0-.57v-.1a2,2,0,0,1,3.49-1.24,2,2,0,0,1,.42,1.58v.07c.25.51,2.71,1.94,8.47,1.94H320.61c5.61,0,8.08-1.36,8.43-1.91v-.2a2,2,0,0,1,.42-1.47,2,2,0,0,1,3.49,1.16,3.62,3.62,0,0,1,0,.93v7.87a3.74,3.74,0,0,1-1.05,2.91C329.47,294.31,323.78,294.72,320.61,294.72ZM74.93,284.87v3.78c.16.69,2.57,2.17,8.47,2.17H320.61c5.83,0,8.27-1.46,8.45-2v-4a23.09,23.09,0,0,1-8.44,1.31H83.4A23.19,23.19,0,0,1,74.93,284.87Z"/><rect class="cls-2" x="1" y="1" width="400" height="400"/><text class="cls-3" transform="translate(2.49 468.21)">ditribute html experiance.</text></g></g></svg>